<mxfile host="Electron" modified="2024-06-18T21:49:33.088Z" agent="Mozilla/5.0 (Windows NT 10.0; Win64; x64) AppleWebKit/537.36 (KHTML, like Gecko) draw.io/22.1.11 Chrome/114.0.5735.289 Electron/25.9.8 Safari/537.36" etag="pj3hLsITHBpUjozTFdDu" version="22.1.11" type="device">
  <diagram name="Page-1" id="GRieF17HSdDyUzrKWvb2">
    <mxGraphModel dx="1642" dy="542" grid="1" gridSize="10" guides="1" tooltips="1" connect="1" arrows="1" fold="1" page="1" pageScale="1" pageWidth="850" pageHeight="1100" math="0" shadow="0">
      <root>
        <mxCell id="0" />
        <mxCell id="1" parent="0" />
        <mxCell id="o7XWPokPhKy2v0VwsU6A-1" value="&lt;b style=&quot;font-size: 22px;&quot;&gt;&lt;font style=&quot;font-size: 22px;&quot;&gt;Client&lt;/font&gt;&lt;/b&gt;" style="sketch=0;outlineConnect=0;fontColor=#CDA2BE;gradientColor=none;strokeColor=#232F3E;fillColor=#ffffff;dashed=0;verticalLabelPosition=bottom;verticalAlign=top;align=center;html=1;fontSize=22;fontStyle=0;aspect=fixed;shape=mxgraph.aws4.resourceIcon;resIcon=mxgraph.aws4.client;hachureGap=4;jiggle=2;curveFitting=1;fontFamily=Architects Daughter;fontSource=https%3A%2F%2Ffonts.googleapis.com%2Fcss%3Ffamily%3DArchitects%2BDaughter;" vertex="1" parent="1">
          <mxGeometry x="-20" y="45" width="230" height="230" as="geometry" />
        </mxCell>
        <mxCell id="o7XWPokPhKy2v0VwsU6A-2" value="" style="image;html=1;image=img/lib/clip_art/computers/Server_Rack_128x128.png;sketch=1;hachureGap=4;jiggle=2;curveFitting=1;fontFamily=Architects Daughter;fontSource=https%3A%2F%2Ffonts.googleapis.com%2Fcss%3Ffamily%3DArchitects%2BDaughter;fontSize=20;" vertex="1" parent="1">
          <mxGeometry x="285" y="60" width="250" height="210" as="geometry" />
        </mxCell>
        <mxCell id="o7XWPokPhKy2v0VwsU6A-4" value="" style="image;html=1;image=img/lib/clip_art/computers/Database_128x128.png;sketch=1;hachureGap=4;jiggle=2;curveFitting=1;fontFamily=Architects Daughter;fontSource=https%3A%2F%2Ffonts.googleapis.com%2Fcss%3Ffamily%3DArchitects%2BDaughter;fontSize=20;" vertex="1" parent="1">
          <mxGeometry x="580" y="50" width="160" height="220" as="geometry" />
        </mxCell>
        <mxCell id="o7XWPokPhKy2v0VwsU6A-5" value="" style="shape=image;verticalLabelPosition=bottom;labelBackgroundColor=default;verticalAlign=top;aspect=fixed;imageAspect=0;image=data:image/png,iVBORw0KGgoAAAANSUhEUgAAAWIAAACOCAIAAACEz5VgAAAgAElEQVR4Ae2df0gb2d7/54/9Y4ss3XC7l3SFvbttpbooLU0X7sJ9aHh8kOe5hUv6LHdJWUG6uM8fxagUtjx/hICytMr3euXrH2nE64X1x0O+XOJak0dhNwZ7q+KEQkSlFCGiU0OkQoLzR0KWwPlq3vU4TmJMk5mYSY4M7czkzJkzn3M+r/P5fM6ZMxxhf2chgUQyvh0NugKOufXJ6bXRufVJNUqRSMZ3RKF7pqVvtqOQu/g3vdvRYI4lXA0tTa+NyhLviELzWI1/00sICbx+PjhvkyXIftg905J7AbJnxX7NQwJcHtewS/KTwHY06N/0jvv79xt9q9PQ7mpsdRqGFrrm1ielOhCN7SaScdxiNbSEn8R4JBrbld43GtsV4xHpGezL7tLqNPTNdoz7++ldwA5CSCIZp3luR4OroaX03Agh29Fg81hN90wLLdWOKGA/kYyvhpaQyXY0iKK6Ag6rx5ye1XY0iKtcAUffbAcKQE/uiIL0kmhsdzW0RO/SPFaDzKOxXWlKXE7PSK+ihZRmy/bzkwDDRH5ye+erptdGm8dq2l2NfbMd7a5G/6Y3GtvtnGhC698RBaqlQwtd4/7+RDLePdPSOdEUeP18OxpsdzV2TjRRrd4/2eo0SFUXBZLdZW59MpGMw2BBgkQy3jfb0eo0BF4/Xw0ttbsaCSGugKPVaRj392d8qrn1yc6JJundrR6zf9O7IwqdE01Wj3k1tLRvbrQ6DfvbdjQYeP2cYmI1tER1uG+2A5o/7u/vnGiCHKwesxiPDC10NY/VUBskGtu1eszNYzUo0o4oAHZWj7nVaRict0FoiWS8eaxmbn2y3dUoxiP+TS/Em0jGB+dt0gwzPhc7mbsEGCZyl1VBKQGCRDKeSMY7J5oABexADcAOKO24v39w3oYulxBi9Zin10bbXY24SoxHWp2GfesAaiktluwugdfPYeRTvR339w8tdA3O28b9/dvRYOdEE/KhyizNDftwWLpnWpAbIaR7pmV6bdTqMbsCDkJINLaLsvXNduwTB9lS+gAEhBAYNVaPud3ViCcCNebWJ7tnWmBk4Y4onn/T2znRBIS1uxqHFrrApu6ZFuqjdU40jfv7rR4zYAH5+De93TMtroCje6Yl/XHYmTwkwDCRh9AKuiSRjKM3pryAktBOGBrY7mqE7eDf9O73//smPYWCK+AYWuja90danYaMfgfKh7vAa2h1GqDPrU7DjihAr2AOtLsaqdalP9h+DAX3dQUcgAIhZHDeZvWYOyeaZE7E9NroamhpNbQEK6nVaVgNLfXNdiD/cX//uL9fjEfG/f2UgIlkfN/52o4Gu2dahha6UFo8+44oDC10IYjTPFZDQdY904IYx37iVqfBv+lFYWjxkGHfbAcyTH8oduZdJcAw8a4SKzQ9xQS65X0TGtoOhdwRBXTvNMiHblza2VK9omkylomqExATje3OrU8OzttWQ0tw9XdEod3VCIs9Yw6EEMAIOzABEsn4viXS6jRALaWPg0zgIg3O26Cl02uj6NXpDo1N0GwR4IQtIP0VGcK5gKMBoQETFJ1wRpBgNbRk9Zijsd3msRpq/pz0dOx8jhJgmMhRUEomox0s/HOq7ejkA6+fw+WW2vOIJqCzRTiARvVOKtngvA3efjS2CyMC4KD9NoIj2S3zoYUu2DLAGTR/bn2yeawGWg2PiXb1CCLuGyAwJaS2DGIccEaoNYEI7uC8jRYDHg19KNxF+rAUf3Prk3CmumdarB4zTJtxf//02ujQQhfNkGbFdvKWAMNE3qLL/0IpJqj+E0KGFrrg29OeEH1j90zL4LwNUbq59cm+2Q447ThzUjkoJhDLQMByaKEL5sPc+iScjiyWOTyCVqcBt+ucaEI3DkxQn4h6Hwi7opOnegtIIbQJ30dqL4BZzWM10dguhl1pCIYQMu7vxx2lmOib7cBJWDeIelDuWD1mBER3RCHw+jnl10lSYudzkQDDRC5SUjgNxQS6aDp+Mb02iq6buuLTa6N0RGNw3obYHsL+sPZPGp5ABIGOHUDDMQqLEdNWpwEDClkCE1K7hhCCoAkhBOMaCItQVwLlmV4bBRcofRCCgcbKMAFzBqDEsGvg9XO4VLhd50QTxk2lmBict82tT8J1QhkgGaTcD4tIM4QxonD9VV52DBNnUOcUE0MLXXQMgjrqNJRACEG/TS0IMR5B5B9xu/QBUenDUGuCEEIxAZsckT+MoWTBBEKVNE+qyQhYwMjHeETg9XOMccJRojOpcC0UG/GCRDJOrQkQBNYBxi9xZm59EuEP6cAnjU3g2dtdjRSCNA6SniEtPNspRAIME4VIL89rMbYHCkjNgUQyPr02ipEI9JOYAtDuasQYASFEjEcQ0aCB/ZMKQS12WBbb0SBGDWGw4KrBedtJcT4YBVQVkR6U2Y4GKd0wEQNKC3DAC6BaDfythpbEeATxAlfAQZ8alLF6zLQYiOD2zXZQfwHKTw/FeMTqMdOADoIdtJwAljTDk+TDzucuAYaJ3GWlWEqqTiflKEuQfig7kzGfjGlkJ2WH0nzAAuoQSX+CeS89kyUfaTLsyxJjLok0mSxBLreTXpKeoTRztp+HBBgm8hAau4RJoLIkwDBRWfXNnpZJIA8JMEzkITR2CZNAZUmAYaKy6ps9LZNAHhJgmMhDaOwSJoHKkgDDRGXVN3taJoE8JMAwkYfQ2CVMApUlAYaJyqpv9rRMAnlIgGEiD6GxS5gEKksCDBOVVd/saZkE8pAAw0QeQmOXMAlUlgQYJrRd3+FwmC+BP0E4ti62tmXKSp8mAYaJNJFo5IQgCCaTiSuZv7raep/PpxHhqVLMZGwv/mYr/mZL3FgWN5YjK89O2pAAiZOxPVVKo2imDBOKirNYmfl8vpLhw7GC9Pb0FEsGZ3mfZGwvGdsTN5ZD3pEN5+NXjgcrj8wB622+7frivWrfnfd9f+J+aTpx8/2J8/2JW7xXzd9vePHwVsB6++VA24bzseC2R1aexd9slRo75JgIh8PuKfcTu71cN/eUWxTFs2xiBd9bEIRjqlliB+VqU4ALu37PK8eDFw9vgQUUB9D8o3/vvH+QIPuWggW95JemA3YcbHfeX7xXvfLIvPV0ANQouMkUmsExTPh8vrra+hJrdcoXx2g0atqXtlgsygtFuRzrausLbZWldH0ythdZefbK8SBgvQ0oUMU+hQLZGZHl10N8wB6hyBA3ls/KyjjChCAIdbX1F/X6q++dN3zeUK7btQsff8BxJpNJozaFKIoX9XrllFqVnDRNYcoocWN5w/mYb7t+jA5Z1Fv606GqHzEl/Yw0fZZ9euGd91cemUPekfibLVrI4uwcYWJ4eJjjuE/OX6gdGfho9edy3T7/4b8/OX+B4zie54sjYmXvktHjMJ3pXzq2tO53iBvLLwfaFu9Vv3UEsuhwKgyR2fVIXbV4r1q2UW+FEgRWw9vDLPdK8eKXJo5vu771dKCYlsURJnp7ej7guCuXLnPBf5btFvZ/uPhTDXeO4zj3lFtZBS5ObumYuHLp8tlaRmbzXZlNomlMbDgfUwU+0a04jFD6/sTx9xtWHplfOR5sOB+HvCO7fo+4sUxHMRDsRNvAPgZEMBSy6/cIbvuG8/HLgbYXD28BTNIgReYCpO7O32+IrDwrTqvLgImPVn8uW0wE/8kwoXjDKhtMJGN7AevtbBZESj8xSPHK8QBEUKpXp/gIeUdWHpkPRkzgbpxkX6QKI7jtildoeoYME+kyKekz72RNYOKV2s9THpg4YsTJarl4r/qV44G4say2SPe/jZCM7e36PSuPzNlgkSJFyDuidnkYJtSWsML554iJcDhsNBrhC9z48ktVY4rlgYmtpwMHdsTJjFh5ZC5+7JAQsuv3vLUsMpYtNf9C7YIxTCisxmpnlyMmZKprMpnUK5jsXhzHaTE2kV0VXzy8pZRzkUdFRFaeHdgUGTFx5/1fmji1XQ+GiTxq7SwvyQUToijKYoocx6kX5iwPTGS37Vcemc+w1uNvtrJjIvj//q+qxWOYUFW8ymeeCyYIIQcjVsf/lC/KYY7lj4lUN16EEMChRI/9n4ztvY1QnGxNMEwoPDpbISMdmAVDQTE8PHys6Sl6UBGYSA06vBxoK+ZUSEQxMb/rJI/Dl3I6GCYYJo7pdI7WBCHE5/Nh1pXaM0QqAhPoyVOwCFhv4x0t6RcJj1VSYQegw8EE0PsN2UZnD42LX5o4hgmGiWONLndMHLtMzYMKwsQhLKC9i/eqA9bbG87H6VOqcpE3ZlvRd89D3pGXA21v3zE9nKCRxYigPzFMKMwIjk2vyqX9vmOaisPEYTeOqCd9YRzTrvBi+Moj88uBNkzN3HA+lm6vHA9eDrS9ffH8fgO8hmPztU8e1KBokO4wTDBMyFU23Zq4qNf7fL4zXMKKTtCgoRAtDohmG+mgXDh15/C1C8qOLDtv7/iOUJACAvsMEwwTp2OCKmfp7FQuJk7liAoJGCYYJhgm5BJQ6VgZa0IFCqSbD7IzGsdE2J/TK2S5JAv7uVyS5fBua/kNiJaOEUFLwqwJmSareqhZTIT9n/3vj7UjA5/974/ZSXGULCsFckyW/V74lWGCKrN6OwwTqnJBlrkmMfHR6s83vzLVcOew3fzKlPHN9A8Xf6LJrr53/otvvs6QLLU8xI0vv0RWV987X9f6TS4syJKGYUI9OtCctYgJ/n7Dgd9xFl5DgTfV5DsdN78yfcpxOp2+Slet0+k/OX/h5lemdL29+ZXpk/MXqnTVSFbDnUtHwEerPxs+b/jdb35Lk33Kcb//3lKIA1KWmDCe3Z/JZCqP1atC3pFsb4iWLD60+IYolFCn09u+rg/+5TPb1/U6nf5TjjvmfYT9tSMDNdy5Kl31X7+7GfzLZ9/9sUGn01+78PGHiz8dASXsNzj+D4gjTVbDnctgd+QQlUDO5YcJtnqVUkHNlUdmjZEiNf5ahJdNFH31K6X/n3Jcla56uffar0P65d5rVbrqGu5c7cjAkQlwiAmu6pPgXz5DMq7qk3SaYN3Kutr6vb9d/XVI/4/vbyC3YzTJGRAME0qpkyyf8phehZVgXg605TI/ukA3QZnLi8UIQoiimDic46jT6b/7Y8Ny7zWYCZ9y3DHFTgU4r753XqfTd35lWO699ud/M1zU63/3m9/KktWODMCasH1dv9x77V9uvl34+8jieEdGVNosTMy5Uu8VcvCibDCBxxHc9lwXyz0rT+Tw1ZLirKOlPCa44D9//70Fus1VfQKP4yDokDaQ8cU3X9NkF/X6Gu7c5z/8d7r+I4SBSMdF/YH/cpAsLbf0C086UyFORzgcpp8OVPu7JGWGCUJI/M3WhvPxESxKJLR5OMXzxcNbIe9IMZfJUdiagHL+/nvLtQsf13Dnrl34+CDimKnP/2j157rWb66+d/5Tjrt24eOMjOCC//xo9ecvvvn66nvna7hzhs8bTkqW8RYZT1YIJmSqy1avkjlKuRzG32yFvCMHH/iiL2KdCS/o3VPf6dj1e4oJCAhKFUzAtv9w8acDJyJLz58a7zw9WcqX+XDxp4PIZZbcMsEonRSVgAm2elUuFJClwcLWspOEkEQyLm4sbz0dwGrXx97RUsnpSFkN9Nsf/P2GlwNtWb7iUwTXQy1MpOtniZypBEwQQtIHKdMVQKkzMstFo2thYmXa7CoXf7MVWXm24XwcsN6mC+RLX+46epvrVLvjkAUUB29Dp6nz+CBgyDuCT35kqamtpwOL96rZkrkKv9ahUUwIgoBIZPobohkHRNnqVVlUK+NPdA2Y3McXQQ36PZ6VR+YXD2/x9xsyEkROk9T3hPm26y8e3pJ+DSiy8ixHnyIZ26PjMrmXOeOzn3qSWROniqgkEvT29FzU691T7hwxQQhxT7nN5rsmk4mtXpVLFVJD4JcmLmC9nd8HtWQrzYgbyxk3LEUTf7Ml/SZYLoVEmmRs72g4hi1yp4afIrMm3FPuYS38UcM+3ZvIaE3k3uYKT0nLpunJ2sfeEE1Z/iuPzGcSL8xSI+LGsuC2U8MH8y80+U6HGrqtYJ4yTIga+evt6eFSH1KXeRNc6rOvas+MyNJwCSFliAnEJlOw4Nuuv3I8iKw8U9v/P0nIiK3SLwamz/5imFA4MKHd6VXuKTd8h3A4TDtt7LDVq05SsOznRVGUvqJ2zJqQDmEcxhoX71W/HGgT3PZdv0dtZCRje+LGcsg7gnApdYgOdqRlS+0zTDBMyJt6emxCRo1SOJSqn/wBSuYYw8ZGoxH8PVC/TEp4pJYpXqAz5+83vHh46+VAW97r5WJuuDSWEVl5FvKOvHI8QCgUcdB02+GoPIe8YJhgmJBrlVYwIQiCrbT/LBYLRarJZDpQy0PFO33n0MSQ9vOL96pPXS8Xa+ceWzW37TodGZHmdgqzJEVlmGCY0Com5OUuvWO4bxg/OvisyanWhEQzM3DkODikw58n7R+DQvbMs/7KMMEwIVcvrVgT8nKX3rEoitKh4rdKm1UhM9ChBNIzTDBMyNWLYUIuEYWOGSayCJJNr8oinFL8iWFCpVphmMgiWIaJLMIpxZ8YJlSqFYaJLIJlmMginFL8iWFCpVphS+ZmESzDRBbhlOJPDBMq1QpbMjeLYBkmsginFH9imFCpVpKxPS0umftLE6f266GqLHKn4PsXamQle6dDpTanXrbKYsJms+EzxU/sdjrXqPAdTczCTK+jI1Jkn45ZAoOgmOVRhC90QEoZrIkD5cTH+Mrx349Wf67hznEcJx0zT28xJXtGKUzU1dYLgiB9TFEU6fKZBZJCo5iANAS33Zd6O/sgqFkiRJAVI7XsHd92PfsiOtLKLXA/AybqWr8p4+2Lb77+3W9+yzDB83x60xFF8cqlywUyQqOrV0mlEX+z9crxoGSXzOXbrp/9krmfnL9QxtvvfvNbaEIlWxNZVtDFG+sFkkLT1gTlRfzNluC2l86SuVj57kyWwMhgTfzhixvlvTFM2Gw2qgyyHfeUu0BGaNSaOGnJ3GRsD+tfZlgyVyWv5PD1EPo2Kl5gP+nt9SK4Hhkw8eMP3xZn+5+e/5Juxblpt+XPOp2+wp0Oi8UiowM9TF/2Jg9qaNGaCHlH+PsNWVQOa0Ds+j0bzscrj8wH8yzwtlgqUvD2je9DDT89riFJSd8NwxSvxXvVfNt1rKZ96nI4W08H+PsNJxGEVmuBOydgoqv5R7W3H76V2iymf//XA0yofdOu5h9/+JZhoq62/qQFr9KXoqoQTPBt139p4hbvVec4vgjrY9fvyXPJ3NQngvm26wHrbdmSuVgj81TFTsb2XjkeADE5lvnUPE9KcGaYQK+u0+mxXbl0uTiYYNYE1L63pye9TSjicWjU6Xg7WTvVya88MmcxK9LlhjPSNWZkK+VGVp5FVp7JTmLh3BzX0ZbeNBnbg+1zYMKc1ZK5xVHXH3/41vTv/0q35v/8j6Ldl1kTIIXNZpPaFIq4G8hZi07HW0xg6PEQFmcSL5QSQbaPqOpZLpmLVnJRr++2/PlAY9XfpIGJ/+n5ryLc8ccfvm1vuYPFqbXYlAkhSs2boK6EMfVHDxXZ0aJsj2EiBQvY8/z9BiyZm0e3L1Py/A7pkrkB6+2MEzqKut6EIAhXLl2+qD/wAupq68t1u6jXf8BxRqNR2pHmV39ncpXimFCEC7JMygMTb+dWpSwLhC1yDCsW3jDwRUKESw/oQD8jmmlspaiYOFjny+fDYOEHHKfsdlGvB4OqdNW5bDS9rP0pcmg0GjNOLiq8douQA8OESkJOtybkUzAlIxr8/YaA9fbLgbatpwO7fg8+4feun+dBLAPGQvzNFl1Ku6SXzIX0BUEYHh7u7elRcHtitxs+b7io1//Lzfq/fnczlw1MMZlMin9qxz3l1qgdQStIEVaqmklZWROyidKS4IVsIBPLba88Mr8caHvleLDhfLz1dEBw26Xb1tMBumruyiNzwHqb19aSuSpBGtnW1dbrdPrOrwy/DumJ48Ps269DB0DR6fRm811VS6XFzJk1oVKtnW5NZOQFPSmZByH9ejBFSfrO2zviQprPu+8U2+lQqQJEUfyA46p01X/97maOmPjujw06nd5oNKpUJO1myzChUt0Viol3V2+5U5NvDmWCCUEQgIl/fH8jux1Bf7V9XV+lqz7zr2Oq1CILyZZhohDpZbmWYSKLcI6mV2VJVOBPPM9zKWtiufcaBUH2nX98f6NKV/0Bx8ledi6wJGVwueKYqKutNxqNyoYqyj82kW/Pr5QFIc2nTKwJzO2r0lW/6r2UnQ701+Xea1W6ao7jtDskoRKSlMUEFa8gCHW19UrBgmFCqsZq75cJJnp7ej7guLra+r2/XaUgyL5DMaHR171VYoSy06tkslUQQFrEBFsyN0ujLYbTYbFYdDr9H764sfe3q78O6XPZgn/5DE7HE7s9S+kr8CcFlTndoVPKoNAiJtiSuVm0SUVMhMNhi8ViNt+tq62/cunylUuX//xvhtw3TJ34wxc3TCZTb0+Ppic7ZKmAd/1JQUxQjwNlEEUR09gLdz20iImjhTBLKe5wisOSmvGl9uuhx5bMfdf2emp6rMJ6Ua+nG30fNJcdehXarsxCPvXu5ZpAQUzIVp2o8Fe/CCFHpMg0J/oUjS0+XFITLgR3McxttawJURSNRuNF/YGvQV8DzW+nrrb+A46TtelypcCpz6UgJjiOM5vvYmVtm81WuBFBc9CiNQHJJ2N7W08Hjt6hKL7y53LHlBHBt12PrDw7tcEokkAtTPA8/wHH6XT69pY7sjdB3/Ww+T//Q6c7eCUkHA4r8syazkRZTFDFVnZHu5hA28CSuaUICwDifoPgthfzjVW1MIHRjSuXLhf+piniGtpdlk5ZKjFMKCvPLLnF32xtPR1YvFd9xIszcUYk08AD1ttnsgSGWpiwWCycoq+ZchzHRj2UHRBV1oKQ5qZ1a0LGjsjKs1eOB8eWe6Cqm4uP8K5pDjPHayBYUHvr6YDaC17Knlp6qBYmBEFQ8B3T3p6eJ3Y7G+wghITDYalClua+bAxF2uA0vS9uLNM1IA6sDMmSucfe44KeZ6fDIQvohUeL7t55n7/fsPLILLjtpy6ZWxx5qoWJ4pS+Mu+i+NxqxVlT9kDHUhGgxtbTgVeOBy8H2gLW2y8e3uLvN8gIIns3lL48ghW0Xzy8hXfPN5yPBbd91+/JccncYjZ+holiSluZeyk4cqk4ILgKHpOSLjAjbixjmdyM/9K1c0uQCBnbKMNERrGU+kmlPvapOCYu6vVlb0qUeuNQoXwMEyoIVf0sRVFEkFhxPS8kQ6PRmD4BXH1hsDuoLgGGCdVFrN4NeJ632WxYGvts/7VYLGU2uqFerWkxZ4YJLdYaKzOTQFElwDBRVHGzmzEJaFECDBNarDVWZiaBokqAYaKo4mY3YxLQogQYJrRYa6zMTAJFlQDDRFHFzW7GJKBFCTBMaLHWWJmZBIoqAYaJooqb3YxJQIsSYJjQYq2xMjMJFFUCqmNiOxqMxnZ3RMG/6c39ycR4ZDW0lHt6lpJJgElAPQkojwn/ptcVcGxHgyj00EKXK+BYDS11z7QkkvEcn2Tc398905JjYpaMSaCUJXBqH5lIxt+pEy3+wyqMCVfAMThvcwUcVMldAce4v58QIrUOorFdKUrwa99sBxUWMLEjCnPrk+P+/mhst/iiYXdkEsgoge1o0L/pnV4bXQ0t7YiCLE16Xzju7++b7ZAlkx6uhpaax2rSL5Smke2/U2LZtXkcKokJMR5pdRoSyfiOKLS7GsV4hBAyvTbaN9shxiPNYzU4k0jGu2darB6z1WMmhLgCjqGFrs6JpqGFrnZX43Y0OLc+2T3T0u5qbHc1Wj3m6bXRPB6MXQIJQJ5SRuchme1okJqHeVxeTpeM+/tbnYa+2Q70iO2uxnF/P1Xa7WjQ6jHDfKZPjV4z8Pq5K+Dom+3YEYW+2Y6hha7V0BI0YjsavPP3KmQixiM0N0JIIhnvm+0YnLfRxIlk3BVwWD3mwXkbvYUYj8Bsp2eU3VESEyACyrcaWsLTTq+NwrJodRrQ1KbXRocWuubWJzsnmvY/jmD1mCFr7M+tTw4tdFk95u6ZFpnIlH3ySshtbn2y1WmweszNYzUyUgReP4ftthpaQr3siMK4v39ufXJufRLNl1Zl50QTDDr/phf5+De96Ei3o0G0+EqQJ8zezommwOvneN5obLdvtgP2ciIZByM6J5rQX4rxyLi/Hy28c6IJ2j600DU4b+ub7aAagf51OxrcN7FRX9RIGZy3DS10ITEk7wo42l2NqFlajMF5W/dMC81Q8bpQEhPdMy1z65OyIvo3vcBBu6sR7XJfiNvRIIAKNNDHoxI/1U6T3YUdpktgRxRanQa0re6ZFlfAQdOgkbU6DTuiMLTQNbTQtW8vtDoN+10l+kPq/SWScVpxaKBQgO6ZFljdrU6DK+CoKK9Q1s6jsd3OiaZEMg4rmBAC6xi2APrOvtkO9JqQM4IRkD8qxeox9812dE40rYaW+mY74KTsExzSDrx+ThOP+/tBpem1UYh9NbRk9ZiRM+ULrWtFdpTEBG2UtGTTa6OugINaDXPrk4hlwhlDC7Z6zJAyIYSyAwSl+bCdPCQAExcXwkjGvhiPtLsaV0NL+Hd6bRR9EXXu0IMhMTX6tqNBNGIKl3F/f+dEEwVKHiXU6CV9sx3S7hCY2BEFq8eM7n1w3gaHGg8orQhE7ggh/k1vq9NA8Qp7AcKEwkv9CGli/CotAIJ68ESkDouC4lUME9RwooWjgmt1GoCA6bXR6bVRWArUs4J/gasYJqj0Ct8BoKmjhx1Ei4YWugKvnyNaNLc+2e5qpKQmhAANaHCdE01okUMLXdNrozBDEFFqdzXSQHXhpdVQDoPzNopUiGvf4AdGqdCkMUuKiUQyTg3nwXlb50QTde4G522UGrDgVkNLsLuhO9LE6GVRL4D+djQIT0QlMT4f5WoAAAWySURBVKqICUB3OxpsHquBJTbu7wdo8czj/n7/prd7poUig5pbzOkovL4R64KvO702SjFh9Zilli16qqGFLnpHVFk0thuN7TaP1URju4lkHE3W6jHD4oUXLdUWennZ71CzH24FjLK59Uk0Y/T2GTGBnwghYjzSOdFk9ZilmIDRjTw7J5qm10bBbsBFmpgQgjpaDS3BPEc4L5GMU/NE2VpQDBN4GBhdsJeo1IAJCBcO2HY0uN9wgU/a8oASyJdhQqlqTiTjq6ElhBUwtAwDgXZr0q4JN0UoDrFMGM9oi9Nro+2uRjTEufXJ9LCoUmUu8XwQg0chqYPmCjgQ/YGZALkhYEGtCVgc1F6jgWEENShZYBqgB6WJqeSn10Zhs8DcgM3Y7mrE7AHa4yorQ8UwASVvdzUOztuko0Q7onDn71ViPIJYDp6qe6aFGlQAJ56KzqoaWuiqTINW2dqV5rYjCs1jNXAoQArEL2m/JE2MyqKO9PTaKML1gdfPAR34LNRCkV5b9vv+Te/gvC2RjA/O26haYn4Q7AX8i65ubn2SYgKKDTfBv+mF7YzuEwMiiWScZovAZDS22+o0SBN3z7TQyCVVN/+mF1Yh4n2KV4GSmEgk44hZSlsPTu7bGvuy244GcTi9NkrNLTogDGMM5+nAm+IPXFEZQux4ZKg6ggvj/v4dUeicaMIgxZ2/V8ki5NHY7v4cFmpxUBcDCrCfCeCiUsCsxOvIv+lFXEbqc2EwotVpwEmM5cG+oKYxdB66TQiJxnYxzCTGI2I8AkMb84ng8aEKQCIkHvf3Y3rR/tAGpm+gRjAOoBIjCCFKYqLEa7cCi4cxUQwbNY/VgNTNYzVoaohHiPHInb9Xpfu04/5+OjWQxi8w/El948rExI4oBF4/p/0cbVcwtegh3YHYcbgaWgq8fn6S3LajQTrhCHM0Mg4krYaW/Jtemg9mhaaXhxag8B2GicJlWNI5bEeDMGupieff9EonRCWScek8QvowiWSczt6Bh5x+FU3MdspbAgwT5V2/7OmYBBSQAMOEAkJkWTAJlLcEGCbKu37Z0zEJKCABhgkFhMiyYBIobwkwTJR3/bKnYxJQQAIMEwoIkWXBJFDeEmCYKJP6xdfJe3t6bDabKIp5P5UgCDzP4/JwOMzzfCG55V0MdmFJSYBhoqSqI8/C8DxvMpl8Pp97yu2ectfV1ueXkXvKbTbffWK3WywWQRBufPklcmOkyE+eZXMVw0Q5VKXNZntitxuNRp7nfT6f2XzX5/PhwXief2K3Dw8PAyKEENgLPM+DKe4ptyiK4XDY5/OZTCZBOFjc0Wg0WiyW4eFhQojFYqG5CYKA3Agh7in3E7sd5obP5xseHsbdn9jtDCvl0Kokz8AwIRGGZnctFktvT4/FYsETWCwW95SbEBIOh69cuiyKIsdxgiBwHCeK4vDwsO3wjxByUa8HOEwmE3wWnuc5jhseHgZ3jEajNDcAxWKx2GwHazFeuXTZPeVG/kaj0WazwSTRrCxZwTNIgGEig1A0d4paE8OpP5PJhPiCKIp1tfXDw8MmkwmwIIQMDw8DB7ARrly6TDFBCIFFcOXSZWp30NwEQTCZTBAOCEIIwa1xHnYHPCDNyZAVOIsEGCayCEczPwmCYDQafak/qVkBawK2BgwHnufN5rvABGwEs/mue8pts9mAg3A4/MRu7+3pEVJ/PM8bjUZRFJ/Y7YIg/OGLG4IgIL3NZkP8guf5G19+SQhBVrhEM7JjBc1BAgwTOQhJC0nC4TBiDTSOAHPAbL4LJe/t6UEanudhPoTD4YOX90XRPeX2+Xw4j304LMgQgQafzyeKIhiBWyDYgVgGjBee58PhsCiKdKxEC5JjZTxdAgwTp8tIuylgZcDpYKqr3Xo885IzTJx5FahbAIxisKEHdaVc7rkzTJR7DbPnYxIoWAIMEwWLkGXAJFDuEvj/H4eimnVrZWcAAAAASUVORK5CYII=;flipV=0;" vertex="1" parent="1">
          <mxGeometry x="450" y="330" width="298" height="120.69" as="geometry" />
        </mxCell>
        <mxCell id="o7XWPokPhKy2v0VwsU6A-6" value="Server" style="text;html=1;align=center;verticalAlign=middle;resizable=0;points=[];autosize=1;strokeColor=none;fillColor=none;fontSize=20;fontFamily=Architects Daughter;fontStyle=1;fontColor=#7EA6E0;" vertex="1" parent="1">
          <mxGeometry x="365" y="273" width="90" height="40" as="geometry" />
        </mxCell>
        <mxCell id="o7XWPokPhKy2v0VwsU6A-7" value="Database" style="text;html=1;align=center;verticalAlign=middle;resizable=0;points=[];autosize=1;strokeColor=none;fillColor=none;fontSize=20;fontFamily=Architects Daughter;fontStyle=1;fontColor=#97D077;" vertex="1" parent="1">
          <mxGeometry x="605" y="273" width="110" height="40" as="geometry" />
        </mxCell>
        <mxCell id="o7XWPokPhKy2v0VwsU6A-17" value="3-Tier architecture is an arch having multiple layers.&lt;br&gt;Therefore here the client sends a request to the web &lt;br&gt;server suppose which in turn sends a rqst to the database&lt;br&gt;server which sends back a response to the web server&lt;br&gt;which in turn sends back the response to the desired&lt;br&gt;client&amp;nbsp;" style="text;html=1;align=center;verticalAlign=middle;resizable=0;points=[];autosize=1;strokeColor=none;fillColor=none;fontSize=20;fontFamily=Architects Daughter;fontStyle=1;fontColor=#99004D;" vertex="1" parent="1">
          <mxGeometry x="-100" y="390" width="580" height="160" as="geometry" />
        </mxCell>
        <mxCell id="o7XWPokPhKy2v0VwsU6A-24" value="Request" style="text;html=1;align=center;verticalAlign=middle;resizable=0;points=[];autosize=1;strokeColor=none;fillColor=none;fontSize=20;fontFamily=Architects Daughter;fontStyle=1" vertex="1" parent="1">
          <mxGeometry x="220" y="113" width="100" height="40" as="geometry" />
        </mxCell>
        <mxCell id="o7XWPokPhKy2v0VwsU6A-25" value="Request" style="text;html=1;align=center;verticalAlign=middle;resizable=0;points=[];autosize=1;strokeColor=none;fillColor=none;fontSize=20;fontFamily=Architects Daughter;fontStyle=1" vertex="1" parent="1">
          <mxGeometry x="477.5" y="113" width="100" height="40" as="geometry" />
        </mxCell>
        <mxCell id="o7XWPokPhKy2v0VwsU6A-26" value="Response" style="text;html=1;align=center;verticalAlign=middle;resizable=0;points=[];autosize=1;strokeColor=none;fillColor=none;fontSize=20;fontFamily=Architects Daughter;fontStyle=1" vertex="1" parent="1">
          <mxGeometry x="480" y="170" width="110" height="40" as="geometry" />
        </mxCell>
        <mxCell id="o7XWPokPhKy2v0VwsU6A-27" value="Response" style="text;html=1;align=center;verticalAlign=middle;resizable=0;points=[];autosize=1;strokeColor=none;fillColor=none;fontSize=20;fontFamily=Architects Daughter;fontStyle=1" vertex="1" parent="1">
          <mxGeometry x="215" y="183" width="110" height="40" as="geometry" />
        </mxCell>
        <mxCell id="o7XWPokPhKy2v0VwsU6A-30" value="" style="html=1;shadow=0;dashed=0;align=center;verticalAlign=middle;shape=mxgraph.arrows2.twoWayArrow;dy=0.65;dx=22;sketch=1;hachureGap=4;jiggle=2;curveFitting=1;fontFamily=Architects Daughter;fontSource=https%3A%2F%2Ffonts.googleapis.com%2Fcss%3Ffamily%3DArchitects%2BDaughter;fontSize=20;fillColor=#FFFF99;" vertex="1" parent="1">
          <mxGeometry x="190" y="130" width="160" height="60" as="geometry" />
        </mxCell>
        <mxCell id="o7XWPokPhKy2v0VwsU6A-31" value="" style="html=1;shadow=0;dashed=0;align=center;verticalAlign=middle;shape=mxgraph.arrows2.twoWayArrow;dy=0.65;dx=22;sketch=1;hachureGap=4;jiggle=2;curveFitting=1;fontFamily=Architects Daughter;fontSource=https%3A%2F%2Ffonts.googleapis.com%2Fcss%3Ffamily%3DArchitects%2BDaughter;fontSize=20;fillColor=#F19C99;" vertex="1" parent="1">
          <mxGeometry x="465" y="130" width="125" height="53" as="geometry" />
        </mxCell>
      </root>
    </mxGraphModel>
  </diagram>
</mxfile>
